<?xml version="1.0" encoding="UTF-8"?>
<svg id="_Слой_2" data-name="Слой 2" xmlns="http://www.w3.org/2000/svg" viewBox="0 0 502.8 485.46">
  <defs>
    <style>
      .cls-1 {
        fill: #432918;
      }
    </style>
  </defs>
  <g id="_Слой_1-2" data-name="Слой 1">
    <g>
      <g>
        <path class="cls-1" d="m0,190.72h25.48c3.96,0,7.07.94,9.35,2.82s3.41,4.22,3.41,7.02c0,2.46-.9,4.54-2.71,6.24-1.81,1.7-4.52,3.03-8.14,3.97,4.79.8,8.2,2.11,10.21,3.95,2.02,1.84,3.03,4.14,3.03,6.91,0,2.45-.72,4.55-2.16,6.31-1.02,1.25-2.81,2.36-5.35,3.33-2.55.97-5.55,1.45-9.02,1.45H0v-2.64h3.86c.66,0,1.16-.2,1.51-.6.45-.55.68-1.2.68-1.96v-32.53c0-.49-.21-.89-.64-1.19-.43-.3-1.14-.46-2.15-.46H0v-2.64Zm15.06,19h4.74c3.26,0,5.59-.68,6.99-2.04,1.4-1.36,2.1-3.61,2.1-6.75,0-2.72-.67-4.66-2.02-5.81-1.34-1.15-3.9-1.73-7.67-1.73-1.8,0-2.94.16-3.42.48s-.72.91-.72,1.76v14.09Zm0,2.64v15.28c0,.8.17,1.4.51,1.82.34.42.8.62,1.39.62h5.45c2.67,0,4.77-.73,6.29-2.19,1.52-1.46,2.29-3.6,2.29-6.42s-.81-5.21-2.44-6.77c-1.63-1.56-4-2.34-7.1-2.34h-6.39Z"/>
        <path class="cls-1" d="m81.84,219.61h-18.63c.06,3.73.81,6.48,2.25,8.25,1.45,1.77,3.3,2.66,5.57,2.66,1.63,0,3.17-.45,4.62-1.36,1.46-.91,2.95-2.56,4.48-4.94l2.07,1.28c-1.61,2.84-3.45,4.87-5.53,6.09-2.07,1.22-4.61,1.83-7.6,1.83-4.36,0-7.88-1.33-10.57-3.98s-4.03-6.05-4.03-10.2,1.35-7.61,4.06-10.4c2.71-2.78,6.03-4.18,9.97-4.18,2.73,0,5.07.56,7.03,1.68,1.96,1.12,3.48,2.75,4.57,4.9,1.09,2.15,1.66,4.94,1.72,8.37Zm-18.63-2.58h8.87c.83,0,1.43-.21,1.79-.62.36-.42.54-1.17.54-2.27,0-2.2-.5-3.9-1.5-5.1-1-1.2-2.28-1.8-3.82-1.8-1.83,0-3.23.81-4.21,2.44-.97,1.63-1.52,4.08-1.66,7.36Z"/>
        <path class="cls-1" d="m95.74,190.72l12.47-.62v37.81c0,.68.22,1.22.65,1.61.44.39,1.06.58,1.87.58h1.68v2.64h-16.02v-2.64h1.82c.83,0,1.45-.22,1.86-.67.41-.45.61-1.12.61-2.03v-31.07c0-.97-.27-1.71-.8-2.23s-1.25-.78-2.16-.78h-1.99v-2.58Z"/>
        <path class="cls-1" d="m124.95,190.72l12.47-.62v37.81c0,.68.22,1.22.65,1.61.44.39,1.06.58,1.87.58h1.68v2.64h-16.02v-2.64h1.82c.83,0,1.45-.22,1.86-.67.41-.45.61-1.12.61-2.03v-31.07c0-.97-.27-1.71-.8-2.23s-1.25-.78-2.16-.78h-1.99v-2.58Z"/>
        <path class="cls-1" d="m182.39,219.61h-18.63c.06,3.73.81,6.48,2.25,8.25,1.45,1.77,3.3,2.66,5.57,2.66,1.63,0,3.17-.45,4.62-1.36,1.46-.91,2.95-2.56,4.48-4.94l2.07,1.28c-1.61,2.84-3.45,4.87-5.53,6.09-2.07,1.22-4.61,1.83-7.6,1.83-4.36,0-7.88-1.33-10.57-3.98s-4.03-6.05-4.03-10.2,1.35-7.61,4.06-10.4c2.71-2.78,6.03-4.18,9.97-4.18,2.73,0,5.07.56,7.03,1.68,1.96,1.12,3.48,2.75,4.57,4.9,1.09,2.15,1.66,4.94,1.72,8.37Zm-18.63-2.58h8.87c.83,0,1.43-.21,1.79-.62.36-.42.54-1.17.54-2.27,0-2.2-.5-3.9-1.5-5.1-1-1.2-2.28-1.8-3.82-1.8-1.83,0-3.23.81-4.21,2.44-.97,1.63-1.52,4.08-1.66,7.36Z"/>
        <path class="cls-1" d="m238.59,190.6l13.21-.51v34.77c0,1.78.12,2.98.35,3.59.24.62.6,1.06,1.09,1.33.49.28,1.44.41,2.84.41v2.53l-10.94.34-.8-5.17c-1.67,2.18-3.18,3.63-4.53,4.35-1.35.72-3.04,1.08-5.07,1.08-3.64,0-6.6-1.22-8.89-3.66-2.29-2.44-3.44-5.76-3.44-9.94,0-4.62,1.21-8.29,3.64-10.99,2.42-2.71,5.43-4.06,9.03-4.06,1.93,0,3.65.42,5.16,1.26,1.51.84,2.87,2.21,4.1,4.1v-12.1c0-1.44-.13-2.47-.4-3.1s-.62-1.06-1.06-1.29c-.45-.24-1.36-.35-2.74-.35h-1.56v-2.58Zm-.91,17.73c-2.2,0-3.83.97-4.91,2.9-.89,1.57-1.33,4.07-1.33,7.5,0,2.86.25,5,.74,6.41.49,1.41,1.2,2.46,2.12,3.15s1.96,1.04,3.14,1.04c1.93,0,3.48-.82,4.66-2.47,1.57-2.16,2.36-4.92,2.36-8.29,0-3.12-.68-5.61-2.04-7.46-1.36-1.85-2.94-2.77-4.72-2.77Z"/>
        <path class="cls-1" d="m297.48,219.61h-18.63c.06,3.73.81,6.48,2.25,8.25,1.45,1.77,3.3,2.66,5.57,2.66,1.63,0,3.17-.45,4.62-1.36,1.46-.91,2.95-2.56,4.48-4.94l2.07,1.28c-1.61,2.84-3.45,4.87-5.53,6.09-2.07,1.22-4.61,1.83-7.6,1.83-4.36,0-7.88-1.33-10.57-3.98s-4.03-6.05-4.03-10.2,1.35-7.61,4.06-10.4c2.71-2.78,6.03-4.18,9.97-4.18,2.73,0,5.07.56,7.03,1.68,1.96,1.12,3.48,2.75,4.57,4.9,1.09,2.15,1.66,4.94,1.72,8.37Zm-18.63-2.58h8.87c.83,0,1.43-.21,1.79-.62.36-.42.54-1.17.54-2.27,0-2.2-.5-3.9-1.5-5.1-1-1.2-2.28-1.8-3.82-1.8-1.83,0-3.23.81-4.21,2.44-.97,1.63-1.52,4.08-1.66,7.36Z"/>
        <path class="cls-1" d="m349.47,190.72h20.65v2.64h-2.47c-.91,0-1.57.2-1.99.61s-.62,1.03-.62,1.86v25.57c0,3.54-1.28,6.46-3.83,8.75-2.58,2.29-6.05,3.44-10.43,3.44-4.03,0-7.31-1.09-9.84-3.28-2.53-2.19-3.79-4.71-3.79-7.57,0-2.22.64-4.02,1.92-5.41s2.84-2.09,4.67-2.09c1.57,0,2.9.53,3.98,1.58,1.08,1.05,1.62,2.33,1.62,3.85s-.39,2.59-1.16,3.46c-.78.87-1.71,1.31-2.81,1.31-.25,0-.59-.04-1.02-.11-.59-.13-1-.2-1.25-.2-.51,0-.87.1-1.08.28-.21.21-.31.53-.31.97,0,1.1.56,2.05,1.68,2.84,1.5,1.04,3.29,1.56,5.37,1.56,2.31,0,4.12-.75,5.43-2.26,1.31-1.5,1.96-3.69,1.96-6.55v-26.13c0-.85-.2-1.48-.61-1.88s-1.01-.6-1.8-.6h-4.23v-2.64Z"/>
        <path class="cls-1" d="m398.68,204.66c2.97,0,5.71.64,8.2,1.93,2.49,1.29,4.34,2.97,5.55,5.04,1.21,2.07,1.82,4.57,1.82,7.49,0,4.66-1.59,8.23-4.76,10.72s-6.77,3.74-10.78,3.74c-2.84,0-5.44-.64-7.8-1.92-2.36-1.28-4.17-3-5.44-5.17-1.27-2.17-1.9-4.62-1.9-7.34,0-4.11,1.43-7.55,4.3-10.33,2.87-2.77,6.47-4.16,10.81-4.16Zm.17,2.7c-1.97,0-3.54.87-4.7,2.6-1.16,1.73-1.75,4.78-1.75,9.13s.58,7.65,1.73,9.36c1.15,1.71,2.72,2.57,4.69,2.57s3.63-.88,4.86-2.64c1.23-1.76,1.85-4.8,1.85-9.12s-.61-7.52-1.82-9.27c-1.21-1.75-2.83-2.63-4.86-2.63Z"/>
        <path class="cls-1" d="m427.74,206.14l11.87-.68v17.73c0,1.65.44,2.95,1.33,3.91.89.96,2.04,1.43,3.45,1.43,2,0,3.59-.79,4.79-2.39s1.79-3.46,1.79-5.6v-8.69c0-1.02-.28-1.8-.85-2.33-.57-.53-1.35-.79-2.33-.79h-1.31v-2.58l12.02-.68v21.53c0,.97.3,1.72.9,2.27.6.55,1.39.82,2.37.82h1.22v2.64l-11.02.34c-.45-1.89-.72-3.92-.8-6.08-1.83,2.33-3.6,3.97-5.3,4.91-1.7.95-3.46,1.42-5.3,1.42s-3.34-.38-4.57-1.14c-1.24-.76-2.22-1.96-2.96-3.61s-1.1-3.65-1.1-5.99v-10.57c0-1.16-.29-1.98-.88-2.49-.59-.5-1.7-.77-3.32-.81v-2.58Z"/>
        <path class="cls-1" d="m495.04,230.09v2.64h-18.58v-2.64h2.3c.95,0,1.64-.18,2.07-.55.44-.37.65-.87.65-1.49v-15.74c0-1.27-.29-2.2-.87-2.78-.58-.59-1.39-.88-2.43-.88h-1.51v-2.5l11.36-.6v8.66c.66-2.9,1.82-5.12,3.47-6.68s3.5-2.33,5.57-2.33c1.76,0,3.15.47,4.18,1.41,1.02.94,1.53,2.14,1.53,3.62,0,1.27-.35,2.3-1.07,3.08-.71.79-1.58,1.18-2.6,1.18-.91,0-1.69-.34-2.34-1.02-.65-.68-.98-1.55-.98-2.61,0-.59.15-1.2.46-1.85.16-.36.25-.62.25-.77,0-.26-.06-.46-.18-.58s-.32-.18-.58-.18c-.68,0-1.42.4-2.24,1.19-1.25,1.23-2.29,3.15-3.14,5.75-.85,2.6-1.27,5.23-1.27,7.88v5.74c0,.66.18,1.17.54,1.52.36.35.86.53,1.51.53h3.89Z"/>
      </g>
      <g>
        <path class="cls-1" d="m150.03,284.27v1.68h-25.19v-1.68h25.19Z"/>
        <path class="cls-1" d="m165.15,293.86v-25.22h1.71v25.22h-1.71Z"/>
        <path class="cls-1" d="m182.74,268.63h1.71v3.32h-1.71v-3.32Zm0,8.11h1.71v17.11h-1.71v-17.11Z"/>
        <path class="cls-1" d="m200.33,281.06c0-1.51,0-2.94-.03-4.31h1.68c.07.55.1,2.77.07,3.25.75-1.75,2.16-3.66,5.68-3.66,3.05,0,5.75,1.71,5.75,6.43v11.09h-1.71v-10.82c0-3.05-1.27-5.03-4.24-5.03-4.07,0-5.48,3.39-5.48,7.12v8.73h-1.71v-12.8Z"/>
        <path class="cls-1" d="m242.42,292.69c0,5.48-2.43,8.35-7.39,8.35-4.45,0-6.3-2.5-6.71-5.1h1.75c.62,2.36,2.57,3.49,5.03,3.49,4.45,0,5.68-2.88,5.68-7.22v-1.78c-.92,2.22-2.6,3.42-5.72,3.42-4,0-7.08-3.25-7.08-8.56,0-5.75,3.29-8.97,7.32-8.97,3.49,0,5,1.64,5.48,3.01.03-.99.07-2.19.1-2.6h1.61c0,.62-.07,3.32-.07,4.96v10.99Zm-12.63-7.46c0,4.07,2.16,7.02,5.44,7.02,4.28,0,5.58-2.84,5.58-7.29s-1.37-7.02-5.48-7.02-5.54,3.39-5.54,7.29Z"/>
        <path class="cls-1" d="m258.68,285.51c.03,4.42,2.26,7.15,5.54,7.15s4.31-1.81,4.93-3.22h1.75c-.72,2.26-2.53,4.83-6.74,4.83-5.2,0-7.22-4.48-7.22-8.83,0-4.89,2.43-9.1,7.43-9.1,5.27,0,6.95,4.55,6.95,7.77,0,.48,0,.96-.03,1.4h-12.59Zm10.85-1.51c-.03-3.39-1.88-6.06-5.24-6.06-3.53,0-5.13,2.46-5.51,6.06h10.75Z"/>
        <path class="cls-1" d="m285.74,281.4c0-2.88-.03-4.11-.03-4.65h1.68c.03.55.07,1.64.07,3.83.99-2.57,3.18-4.11,5.96-4.24v1.85c-3.56.24-5.96,2.7-5.96,6.78v8.9h-1.71v-12.46Z"/>
        <path class="cls-1" d="m306.82,268.63h1.71v3.32h-1.71v-3.32Zm0,8.11h1.71v17.11h-1.71v-17.11Z"/>
        <path class="cls-1" d="m324.79,285.51c.03,4.42,2.26,7.15,5.54,7.15s4.31-1.81,4.93-3.22h1.75c-.72,2.26-2.53,4.83-6.74,4.83-5.2,0-7.22-4.48-7.22-8.83,0-4.89,2.43-9.1,7.43-9.1,5.27,0,6.95,4.55,6.95,7.77,0,.48,0,.96-.03,1.4h-12.59Zm10.85-1.51c-.03-3.39-1.88-6.06-5.24-6.06-3.53,0-5.13,2.46-5.51,6.06h10.75Z"/>
        <path class="cls-1" d="m376.91,284.27v1.68h-25.19v-1.68h25.19Z"/>
      </g>
      <path class="cls-1" d="m214.19,27.26h49.26c9.67,0,17.07,2.13,22.2,6.38,5.13,4.25,7.7,9.6,7.7,16.02,0,5.36-1.79,9.91-5.37,13.66-3.58,3.74-8.97,6.7-16.16,8.87,8.9,1.88,15.58,4.83,20.03,8.86,4.45,4.03,6.68,9.11,6.68,15.25,0,4.69-1.27,8.85-3.8,12.47-2.53,3.62-6.75,6.69-12.65,9.21-5.9,2.52-12.6,3.77-20.09,3.77h-47.79v-4.79h7.79c2.34,0,4.06-.38,5.14-1.15,1.09-.77,1.63-1.64,1.63-2.62V37.48c0-1.79-.53-3.14-1.6-4.06-1.07-.92-2.62-1.37-4.66-1.37h-8.31v-4.79Zm28.24,43.38h17.89c5.49,0,9.87-1.62,13.13-4.85,3.26-3.23,4.89-8.53,4.89-15.88,0-4.55-.78-8.1-2.33-10.65-1.56-2.55-3.81-4.41-6.77-5.58-2.96-1.17-8.08-1.75-15.37-1.75-5.15,0-8.35.37-9.58,1.12-1.24.75-1.85,2.05-1.85,3.92v33.68Zm0,4.79v36.42c0,1.7.5,2.98,1.5,3.83,1,.85,2.8,1.28,5.4,1.28h11.44c7.58,0,13.18-1.67,16.8-5.01,3.62-3.34,5.43-8.55,5.43-15.62,0-6.47-1.88-11.57-5.62-15.3-3.75-3.73-8.92-5.59-15.53-5.59h-19.42Z"/>
      <g>
        <rect class="cls-1" x="178.34" width="153.79" height="2.12"/>
        <rect class="cls-1" x="102.51" y="75.84" width="153.79" height="2.12" transform="translate(102.51 256.3) rotate(-90)"/>
        <rect class="cls-1" x="254.18" y="75.84" width="153.79" height="2.12" transform="translate(254.18 407.97) rotate(-90)"/>
      </g>
      <path class="cls-1" d="m246.51,358.39h41.78v4.79h-5.94c-2.34,0-4.02.43-5.02,1.28-1,.85-1.5,2.09-1.5,3.71v61.27c0,4.73-1.15,9-3.45,12.81-2.3,3.81-5.67,6.84-10.09,9.07-4.43,2.24-9.44,3.35-15.01,3.35-7.58,0-13.78-2.23-18.59-6.68-4.81-4.45-7.22-9.89-7.22-16.32,0-4.77,1.21-8.58,3.64-11.44,2.43-2.85,5.41-4.28,8.94-4.28,2.9,0,5.28.93,7.16,2.78,1.87,1.85,2.81,4.21,2.81,7.06,0,2.47-.77,4.55-2.3,6.23-1.53,1.68-3.3,2.52-5.3,2.52-.77,0-1.83-.21-3.19-.64-1.15-.34-1.92-.51-2.3-.51-.72,0-1.3.3-1.72.89-.47.6-.7,1.49-.7,2.68,0,3.19,1.61,6.1,4.82,8.72,3.22,2.62,7.17,3.93,11.85,3.93,5.32,0,9.52-1.84,12.59-5.53,3.07-3.68,4.6-8.83,4.6-15.43v-60.5c0-1.66-.57-2.91-1.69-3.74-1.13-.83-3.06-1.25-5.78-1.25h-8.37v-4.79Z"/>
      <g>
        <rect class="cls-1" x="178.34" y="483.34" width="153.79" height="2.12"/>
        <rect class="cls-1" x="102.51" y="407.51" width="153.79" height="2.12" transform="translate(587.97 229.17) rotate(90)"/>
        <rect class="cls-1" x="254.18" y="407.51" width="153.79" height="2.12" transform="translate(739.64 77.5) rotate(90)"/>
      </g>
    </g>
  </g>
</svg>